{"title":"Pig.2010 DVDRip Xvid UnKnowN","uid":6736859,"size":1189193915,"categoryP":"video","categoryS":"movies","magnet":"?xt=urn:btih:98931fdd4a3fe99c64173908f07ba4e9dd44b242&amp;dn=Pig.2010+DVDRip+Xvid+UnKnowN&amp;tr=udp%3A%2F%2Ftracker.openbittorrent.com%3A80&amp;tr=udp%3A%2F%2Fopen.demonii.com%3A1337&amp;tr=udp%3A%2F%2Ftracker.coppersurfer.tk%3A6969&amp;tr=udp%3A%2F%2Fexodus.desync.com%3A6969","seeders":1,"leechers":0,"uploader":"UltraTorrents","files":3,"time":1318359841,"description":"Cast:\nMolly Black, Guy Burnet, Andrew Howard, Lorry O'Toole, Juliet Quintin-Archard\n\nPlot:\nA deranged psychotic spends his summer day deciding how to deal with the 3 captives he has chained up on his land. With only his own troubled mind and his dim-witted companion available to guide him and the fate of his victims, the disturbed man makes violent choice after violent choice. No one is safe and no taboo is left unbroken.\n\n\nINFO, POSTER and TRAILER:\n        &lt;a href=&quot;\nhttp://www.sharepixon.net/movies/pig&quot; rel=&quot;nofollow&quot; target=&quot;_NEW&quot;&gt;\nhttp://www.sharepixon.net/movies/pig&lt;/a&gt;\n\n\t\n\nSCREENSHOTS:\n       &lt;a href=&quot;\nhttp://img.sharepixon.net/?v=pig1.png&quot; rel=&quot;nofollow&quot; target=&quot;_NEW&quot;&gt;\nhttp://img.sharepixon.net/?v=pig1.png&lt;/a&gt; &lt;a href=&quot;\nhttp://img.sharepixon.net/?v=pig2.png&quot; rel=&quot;nofollow&quot; target=&quot;_NEW&quot;&gt;\nhttp://img.sharepixon.net/?v=pig2.png&lt;/a&gt;\n\n\n\n\t\nVideo\nID : 0\nFormat : MPEG-4 Visual\nFormat profile : Advanced Simple@L5\nFormat settings, BVOP : Yes\nFormat settings, QPel : No\nFormat settings, GMC : No warppoints\nFormat settings, Matrix : Custom\nCodec ID : XVID\nCodec ID/Hint : XviD\nDuration : 1h 33mn\nBit rate : 1498Kbps\nWidth : 720ixels\nHeight : 304pixels\nDisplay aspect ratio : 2:35\nFrame rate : 25.000fps\nColor space : YUV\nChroma subsampling : 4:2:0\nBit depth : 8 bits\nScan type : Progressive\nBits/(Pixel*Frame) : 0.234\nStream size : 892 MiB (86%)\nWriting library : XviD 1.2.1 (UTC 2008-12-04)\n\nAudio\nID : 1\nFormat : MP3\nFormat/Info : Version 1\nMode extension : MPEG\nCodec ID : 2000\nDuration : 1h 33mn\nBit rate mode : Constant\nBit rate : 128bps\nChannel(s) : 2channels\nChannel positions : Front: L R\nSampling rate : 48.0 KHz\nBit depth : 16 bits\nStream size : 302 MiB\nAlignment : Aligned on interleaves\nInterleave, duration : 42 ms (1.00 video frame)\nInterleave, preload duration : 512 ms","torrent":{"xt":"urn:btih:98931fdd4a3fe99c64173908f07ba4e9dd44b242","amp;dn":"Pig.2010+DVDRip+Xvid+UnKnowN","amp;tr":["udp%3A%2F%2Ftracker.openbittorrent.com%3A80","udp%3A%2F%2Fopen.demonii.com%3A1337","udp%3A%2F%2Ftracker.coppersurfer.tk%3A6969","udp%3A%2F%2Fexodus.desync.com%3A6969"],"infoHash":"98931fdd4a3fe99c64173908f07ba4e9dd44b242","infoHashBuffer":{"type":"Buffer","data":[152,147,31,221,74,63,233,156,100,23,57,8,240,123,164,233,221,68,178,66]},"announce":[],"urlList":[]}}